<?xml version="1.0" standalone="no"?><!DOCTYPE svg PUBLIC "-//W3C//DTD SVG 1.1//EN" "http://www.w3.org/Graphics/SVG/1.1/DTD/svg11.dtd"><svg t="1730943675769" class="icon" viewBox="0 0 1024 1024" version="1.1" xmlns="http://www.w3.org/2000/svg" p-id="6910" xmlns:xlink="http://www.w3.org/1999/xlink" width="200" height="200"><path d="M555.6 91.8C547.8 74.8 530.8 64 512 64s-35.8 10.8-43.6 27.8l-119 257.6-257.6 119C74.8 476.2 64 493.2 64 512s10.8 35.8 27.8 43.6l257.6 119 119 257.6c7.8 17 24.8 27.8 43.6 27.8s35.8-10.8 43.6-27.8l119-257.6 257.6-119c17-7.8 27.8-24.8 27.8-43.6s-10.8-35.8-27.8-43.6l-257.6-119-119-257.6z" p-id="6911" fill="#f4ea2a"></path></svg>