<?xml version="1.0" standalone="no"?><!DOCTYPE svg PUBLIC "-//W3C//DTD SVG 1.1//EN" "http://www.w3.org/Graphics/SVG/1.1/DTD/svg11.dtd"><svg t="1730943636020" class="icon" viewBox="0 0 1024 1024" version="1.1" xmlns="http://www.w3.org/2000/svg" p-id="6651" xmlns:xlink="http://www.w3.org/1999/xlink" width="200" height="200"><path d="M512 64c18.8 0 35.8 10.8 43.6 27.8l119 257.6 257.6 119c17 7.8 27.8 24.8 27.8 43.6s-10.8 35.8-27.8 43.6l-257.6 119-119 257.6c-7.8 17-24.8 27.8-43.6 27.8s-35.8-10.8-43.6-27.8l-119-257.6-257.6-119C74.8 547.8 64 530.8 64 512s10.8-35.8 27.8-43.6l257.6-119 119-257.6C476.2 74.8 493.2 64 512 64z m0 162.4l-82.8 179.2c-4.8 10.4-13 18.6-23.4 23.4L226.4 512l179.2 82.8c10.4 4.8 18.6 13 23.4 23.4l83 179.4 82.8-179.2c4.8-10.4 13-18.6 23.4-23.4l179.4-83-179.2-82.8c-10.4-4.8-18.6-13-23.4-23.4L512 226.4z" p-id="6652" fill="#FF4646"></path></svg>